<?xml version="1.0" encoding="UTF-8"?>
<!DOCTYPE svg PUBLIC "-//W3C//DTD SVG 1.1//EN" "http://www.w3.org/Graphics/SVG/1.1/DTD/svg11.dtd">
<!-- Creator: CorelDRAW X8 -->
<svg xmlns="http://www.w3.org/2000/svg" xml:space="preserve" width="65px" height="65px" version="1.1" style="shape-rendering:geometricPrecision; text-rendering:geometricPrecision; image-rendering:optimizeQuality; fill-rule:evenodd; clip-rule:evenodd"
viewBox="0 0 5052 5064"
 xmlns:xlink="http://www.w3.org/1999/xlink">
 <defs>
  <style type="text/css">
   <![CDATA[
    .str1 {stroke:#0528F2;stroke-width:14.1646}
    .str0 {stroke:#3A4480;stroke-width:14.1646}
    .fil1 {fill:#0528F2}
    .fil0 {fill:#3A4480}
   ]]>
  </style>
 </defs>
 <g id="Слой_x0020_1">
  <metadata id="CorelCorpID_0Corel-Layer"/>
  <g id="_649433120">
   <path class="fil0 str0" d="M4070 4316l-159 -476c-66,-198 -234,-344 -439,-381l-545 -99 0 -42c95,-55 178,-129 243,-216l165 0c134,0 244,-110 244,-244l0 -978c0,-583 -475,-1058 -1059,-1058 -584,0 -1059,475 -1059,1058l0 571c0,157 112,288 260,319 46,234 192,432 392,548l0 42 -544 99c-205,37 -373,183 -439,381l-33 97 -277 -277c-32,-32 -32,-84 0,-115 86,-86 172,-173 258,-259 35,-33 31,-91 -2,-128 -152,-153 -305,-305 -457,-457 -49,-53 -122,-43 -159,-4l-286 286c-108,107 -167,251 -167,403 0,152 59,295 167,403l1101 1101c107,107 251,167 403,167 152,0 295,-60 401,-165 111,-102 222,-203 333,-305 44,-42 39,-78 -1,-122l-59 -60c540,0 1080,0 1621,0 54,3 118,-28 97,-89zm-654 -1458c0,45 -36,81 -81,81l-69 0c24,-54 42,-110 53,-169 35,-8 67,-22 97,-39l0 127zm-81 -267l0 -281c48,29 81,80 81,141 0,60 -33,112 -81,140zm-1629 0c-49,-28 -82,-80 -82,-140 0,-61 33,-112 82,-141l0 281zm0 -548l0 93c-29,8 -56,19 -82,34l0 -290c0,-494 402,-896 896,-896 494,0 896,402 896,896l0 290c-25,-15 -52,-26 -81,-34l0 -93 -82 0c-241,0 -467,-94 -637,-264 -114,-114 -77,-114 -191,0 -170,170 -397,264 -638,264l-81 0zm163 570l0 -410c244,-18 472,-119 651,-289 179,170 407,271 652,289l0 410c0,119 -33,230 -88,326l-517 0c-107,12 -109,150 0,163l383 0c-115,101 -265,163 -430,163 -359,0 -651,-292 -651,-652zm896 777l0 4 -245 245 -244 -245 0 -4c77,25 159,38 244,38 85,0 167,-13 245,-38zm-1481 501c47,-141 167,-245 314,-272l569 -103 353 353 353 -353 570 103c146,27 266,131 313,272l117 351 -1684 0c-79,-78 -157,-157 -236,-235 -58,-63 -118,-49 -169,-3l-265 240c-31,31 -84,31 -115,0l-178 -178 58 -175zm-746 -1041l373 373 -88 89 -374 -374 89 -88zm1428 1925c-77,77 -179,119 -288,119 -109,0 -211,-42 -288,-119l-1101 -1101c-77,-77 -119,-179 -119,-288 0,-109 42,-211 119,-288l45 -45 373 374 -3 3c-95,95 -95,250 0,345l585 584c46,46 107,72 172,72 66,0 127,-25 170,-69l6 -5 375 375 -46 43zm167 -153l-375 -375 108 -97 374 374 -107 98z"/>
   <path class="fil1 str1" d="M4801 7l-1140 0c-135,0 -245,110 -245,244l0 652c0,135 110,244 245,244l217 0c-23,136 -46,271 -70,407 -6,35 12,68 76,28l696 -435 221 0c135,0 244,-109 244,-244l0 -652c0,-134 -109,-244 -244,-244zm81 896c0,45 -36,81 -81,81l-268 0 -517 324 55 -324 -410 0c-45,0 -82,-36 -82,-81l0 -652c0,-44 37,-81 82,-81l1140 0c45,0 81,37 81,81l0 652z"/>
   <path class="fil0 str0" d="M2520 251c-1064,0 -1981,737 -2219,1763 -44,-73 -66,-109 -109,-182 -80,-101 -190,3 -143,79 73,118 121,202 193,321 41,69 65,76 135,35 117,-70 214,-128 331,-198 111,-65 6,-197 -72,-146l-170 101c231,-939 1075,-1610 2054,-1610 192,0 382,26 565,76 111,31 151,-127 38,-158 -195,-54 -398,-81 -603,-81z"/>
   <path class="fil1 str1" d="M4916 1756l-283 -169c-88,-51 -117,-42 -168,43 -62,105 -122,203 -189,315 -54,81 62,172 141,81l108 -178c75,219 113,449 113,684 0,469 -157,928 -444,1297 -65,82 32,186 128,101 309,-398 479,-893 479,-1398 0,-249 -40,-492 -119,-725 63,37 105,62 167,100 95,62 202,-69 67,-151z"/>
   <rect class="fil1 str1" x="3742" y="333" width="977" height="163" rx="81" ry="81"/>
   <rect class="fil1 str1" x="3742" y="659" width="652" height="163" rx="54" ry="81"/>
   <rect class="fil1 str1" x="4556" y="659" width="163" height="163" rx="14" ry="81"/>
  </g>
 </g>
</svg>
