<?xml version="1.0" encoding="UTF-8"?>
<!DOCTYPE svg PUBLIC "-//W3C//DTD SVG 1.1//EN" "http://www.w3.org/Graphics/SVG/1.1/DTD/svg11.dtd">
<!-- Creator: CorelDRAW X8 -->
<svg xmlns="http://www.w3.org/2000/svg" xml:space="preserve" width="65px" height="62px" version="1.1" style="shape-rendering:geometricPrecision; text-rendering:geometricPrecision; image-rendering:optimizeQuality; fill-rule:evenodd; clip-rule:evenodd"
viewBox="0 0 5005 4756"
 xmlns:xlink="http://www.w3.org/1999/xlink">
 <defs>
  <style type="text/css">
   <![CDATA[
    .str0 {stroke:#0528F2;stroke-width:27.1565}
    .str1 {stroke:#3A4480;stroke-width:16.2939}
    .fil0 {fill:#0528F2}
    .fil1 {fill:#3A4480}
   ]]>
  </style>
 </defs>
 <g id="Слой_x0020_1">
  <metadata id="CorelCorpID_0Corel-Layer"/>
  <g id="_649432544">
   <path class="fil0 str0" d="M756 1172l-332 0c-46,0 -83,37 -83,83 0,46 37,84 83,84l332 0c46,0 84,-38 84,-84 0,-46 -38,-83 -84,-83z"/>
   <path class="fil1 str1" d="M4748 756l-250 0c0,-229 -186,-415 -415,-415l-84 0 0 -83c0,-138 -111,-250 -249,-250l-2495 0c-137,0 -249,112 -249,250l0 83 -83 0c-230,0 -416,186 -416,415l-249 0c-138,1 -250,112 -250,250l0 1414c0,91 75,166 166,166l167 0 0 1595c-100,35 -166,129 -167,234l0 250c0,45 38,83 84,83 0,0 0,0 0,0l665 0c46,0 83,-37 83,-83 0,0 0,0 0,0l0 -250c0,-105 -67,-199 -166,-234l0 -182 499 0 0 84c0,137 111,249 249,249l1829 0c138,0 250,-112 250,-249l0 -84 499 0 0 182c-100,35 -166,129 -167,234l0 250c0,45 38,83 83,83 0,0 0,0 1,0l665 0c46,0 83,-37 83,-83 0,0 0,0 0,0l0 -250c0,-105 -67,-199 -166,-234l0 -1595 166 0c92,0 166,-75 166,-166l0 -1414c0,-138 -112,-249 -249,-250zm-3576 -498c0,-46 37,-84 83,-84l2495 0c46,0 83,38 83,84l0 83 -2661 0 0 -83zm-332 4323l-499 0 0 -166c0,-46 37,-83 83,-83l332 0c46,0 84,37 84,83l0 166zm-333 -415l0 -1580 166 0 0 1580 -166 0 0 0zm-333 -1746l0 -1414c0,-46 38,-83 84,-83l665 0c46,0 83,37 83,83l0 499 0 0 0 0 0 831 0 0 0 1 0 83 -832 0 0 0zm1165 1413l-499 0 0 -166 499 0 0 166zm0 -333l-499 0 0 -914 166 0c92,0 166,-75 166,-166l167 -1 0 1081 0 0zm0 -1247l-167 0 0 -665 167 0 0 665zm2161 1830c0,45 -37,83 -83,83l-1829 0c-46,0 -83,-38 -83,-83l0 -2495 1995 0 0 2495zm-2328 -2661l0 -416c0,-138 -111,-249 -249,-250l-250 0c0,-137 112,-249 250,-249l3160 0c137,0 249,112 249,249l-249 0c-138,1 -250,112 -250,250l0 416 -2661 0zm2661 998c0,91 75,166 166,166l167 0 0 914 -499 0 0 -1080 166 0zm-166 -167l0 -665 166 0 0 665 -166 0zm0 1580l0 -166 499 0 0 166 -499 0zm998 748l-499 0 0 -166c0,-46 37,-83 83,-83l332 0c46,0 84,37 84,83l0 166 0 0zm-333 -415l0 -1580 166 0 0 1580 -166 0 0 0zm249 -1746l-582 0 0 -1414c0,-46 38,-83 84,-83l665 0c46,0 83,37 83,83l0 1414 -250 0z"/>
   <path class="fil0 str0" d="M4581 1172l-332 0c-46,0 -83,37 -83,83 0,46 37,84 83,84l332 0c46,0 84,-38 84,-84 0,-46 -38,-83 -84,-83z"/>
   <path class="fil0 str0" d="M3584 756l-2162 0c-46,0 -83,38 -83,84 0,46 37,83 83,83l2162 0c46,0 83,-37 83,-83 0,-46 -37,-84 -83,-84z"/>
   <path class="fil0 str0" d="M3251 2087c0,0 0,0 0,0l-1497 0c-46,0 -83,37 -83,83 0,0 0,0 0,0l0 1330c0,46 37,84 83,84 0,0 0,0 0,0l1497 0c46,0 83,-38 83,-83 0,0 0,-1 0,-1l0 -1330c0,-46 -37,-83 -83,-83zm-83 915l-333 0c-46,0 -83,37 -83,83 0,46 37,83 83,83l333 0 0 249 -915 0 0 -249 250 0c46,0 83,-37 83,-83 0,-46 -37,-83 -83,-83l-250 0 0 -84c0,-46 -37,-83 -83,-83 -46,0 -83,37 -83,83l0 499 -250 0 0 -1164 250 0 0 333c0,46 37,83 83,83 46,0 83,-37 83,-83l0 -333 507 0c35,209 199,373 408,408l0 341zm0 -511c-117,-30 -207,-121 -238,-238l238 0 0 238z"/>
  </g>
 </g>
</svg>
