<?xml version="1.0" encoding="UTF-8"?>
<!DOCTYPE svg PUBLIC "-//W3C//DTD SVG 1.1//EN" "http://www.w3.org/Graphics/SVG/1.1/DTD/svg11.dtd">
<!-- Creator: CorelDRAW X8 -->
<svg xmlns="http://www.w3.org/2000/svg" xml:space="preserve" width="65px" height="68px" version="1.1" style="shape-rendering:geometricPrecision; text-rendering:geometricPrecision; image-rendering:optimizeQuality; fill-rule:evenodd; clip-rule:evenodd"
viewBox="0 0 189670 200492"
 xmlns:xlink="http://www.w3.org/1999/xlink">
 <defs>
  <style type="text/css">
   <![CDATA[
    .fil1 {fill:#0528F2}
    .fil0 {fill:#3A4480}
   ]]>
  </style>
 </defs>
 <g id="Слой_x0020_1">
  <metadata id="CorelCorpID_0Corel-Layer"/>
  <g id="_649436064">
   <path class="fil0" d="M185698 101684l-24301 0c-2194,0 -3973,1779 -3973,3973 0,33177 -25949,60403 -58617,62460l0 -6601c0,-5100 -7944,-5108 -7944,0l0 6601c-31354,-1974 -56514,-27134 -58488,-58488l6426 0c5100,0 5108,-7944 0,-7944l-6427 -1c1973,-31355 27133,-56520 58488,-58493l0 6845c0,3105 3658,5048 6233,3266l33293 -23046c2220,-1537 2232,-4987 0,-6532l-33292 -23047c-2553,-1767 -6233,135 -6233,3266l0 6959c-12474,507 -24507,3410 -35823,8648 -4629,2143 -1298,9356 3337,7210 11459,-5305 23725,-7994 36458,-7994 2193,0 3972,-1779 3972,-3972l0 -3270 22341 15466 -22341 15466 0 -3361c0,-2194 -1779,-3972 -3972,-3972 -38893,0 -70534,31641 -70534,70534 0,38892 31641,70533 70534,70533 37560,0 68358,-29508 70423,-66561l16380 0c-971,21719 -9890,41997 -25362,57469 -16411,16412 -38232,25450 -61441,25450 -23210,0 -45030,-9039 -61441,-25450 -16412,-16411 -25450,-38232 -25450,-61441 0,-23368 9145,-45295 25749,-61740 3641,-3605 -1950,-9251 -5590,-5644 -18123,17948 -28103,41879 -28103,67384 0,25331 9864,49147 27777,67058 17912,17913 41727,27777 67058,27777 25332,0 49146,-9864 67059,-27776 17911,-17912 27776,-41728 27776,-67059 0,-2194 -1778,-3973 -3972,-3973l0 0z"/>
   <path class="fil1" d="M75939 102190c-4047,2933 -8242,5582 -11158,9758 -2130,3046 -4623,14914 1693,14914l23015 0c3543,0 3573,-7519 -62,-7519l-18394 0c-136,-2221 477,-3914 2154,-5518 3446,-3295 7666,-5685 11414,-8610 7279,-5687 10895,-17073 2366,-23445 -7369,-5505 -19432,-3678 -23170,5214 -1418,3374 -934,9587 4325,8367 3768,-874 2599,-5387 4899,-7690 3208,-3214 9202,-1274 10239,2931 1207,4897 -3903,9047 -7321,11598z"/>
   <path class="fil1" d="M118952 126105c1965,1158 7288,1239 7288,-2066l0 -8125 3100 0c3571,0 3697,-7520 0,-7520l-3100 0 0 -7257c0,-3909 -8574,-3909 -8574,0l0 7257 -7717 0 12664 -25328c1973,-3947 -5753,-6059 -7586,-2195l-15632 30483c-1104,2033 25,4560 2441,4560l15830 0 0 8125c-1,873 428,1561 1286,2066z"/>
   <path class="fil1" d="M91169 147184c832,1998 3180,2976 5183,2149 2000,-826 2978,-3191 2149,-5188 -830,-1999 -3185,-2978 -5187,-2149 -2006,830 -2965,3188 -2145,5188z"/>
   <path class="fil1" d="M39487 32905c1367,3335 6306,3141 7437,-273 1118,-3373 -2632,-6447 -5727,-4700 -1720,971 -2470,3149 -1710,4973z"/>
  </g>
 </g>
</svg>
