<?xml version="1.0" encoding="UTF-8"?>
<!DOCTYPE svg PUBLIC "-//W3C//DTD SVG 1.1//EN" "http://www.w3.org/Graphics/SVG/1.1/DTD/svg11.dtd">
<!-- Creator: CorelDRAW X8 -->
<svg xmlns="http://www.w3.org/2000/svg" xml:space="preserve" width="65px" height="56px" version="1.1" style="shape-rendering:geometricPrecision; text-rendering:geometricPrecision; image-rendering:optimizeQuality; fill-rule:evenodd; clip-rule:evenodd"
viewBox="0 0 17081 14725"
 xmlns:xlink="http://www.w3.org/1999/xlink">
 <defs>
  <style type="text/css">
   <![CDATA[
    .str0 {stroke:#3A4480;stroke-width:67.0674}
    .fil1 {fill:#0528F2}
    .fil0 {fill:#3A4480}
   ]]>
  </style>
 </defs>
 <g id="Слой_x0020_1">
  <metadata id="CorelCorpID_0Corel-Layer"/>
  <g id="_648089936">
   <path class="fil0 str0" d="M13204 34c1058,0 2016,429 2710,1122 694,694 1123,1652 1123,2711 0,1058 -429,2017 -1123,2710 -694,694 -1652,1123 -2710,1123 -1059,0 -2017,-429 -2711,-1123 -694,-693 -1123,-1652 -1123,-2710 0,-1059 429,-2017 1123,-2711 694,-693 1652,-1122 2711,-1122zm2366 1466c-605,-606 -1442,-980 -2366,-980 -925,0 -1762,374 -2367,980 -606,606 -981,1443 -981,2367 0,924 375,1761 981,2367 605,605 1442,980 2367,980 924,0 1761,-375 2366,-980 606,-606 981,-1443 981,-2367 0,-924 -375,-1761 -981,-2367zm-13368 4476c-733,0 -1330,597 -1330,1330 0,734 597,1330 1330,1330 734,0 1331,-596 1331,-1330 0,-733 -597,-1330 -1331,-1330zm0 2162c-458,0 -831,-373 -831,-832 0,-459 373,-832 831,-832 459,0 832,373 832,832 0,459 -373,832 -832,832zm0 -6001c-733,0 -1330,596 -1330,1330 0,733 597,1330 1330,1330 734,0 1331,-597 1331,-1330 0,-734 -597,-1330 -1331,-1330zm0 2162c-458,0 -831,-373 -831,-832 0,-459 373,-832 831,-832 459,0 832,373 832,832 0,459 -373,832 -832,832zm0 5516c-733,0 -1330,597 -1330,1330 0,734 597,1331 1330,1331 734,0 1331,-597 1331,-1331 0,-733 -597,-1330 -1331,-1330zm0 2162c-458,0 -831,-373 -831,-832 0,-458 373,-832 831,-832 459,0 832,374 832,832 0,459 -373,832 -832,832zm14327 37c-57,-126 -205,-181 -330,-124 -125,57 -181,205 -124,330 281,617 438,1280 469,1973l-7966 0c-70,-1461 -757,-2807 -1998,-3906 -383,-340 -765,-609 -1091,-812l7810 0c142,0 280,38 399,111 407,249 1186,799 1830,1693 80,112 236,137 348,57 112,-81 137,-236 56,-348 -695,-966 -1535,-1559 -1974,-1827 -94,-57 -194,-101 -299,-132 287,-220 518,-509 666,-843 85,-189 -45,-307 -202,-312 -245,-8 -284,192 -369,325 -296,467 -818,778 -1411,778l-8759 0c481,-399 787,-1000 787,-1671 0,-671 -306,-1272 -787,-1670l5348 0c380,-48 284,-505 -10,-499l-5338 0c481,-398 787,-999 787,-1670 0,-671 -306,-1272 -787,-1670l5704 0c424,42 484,-507 28,-499l-7114 0c-1196,0 -2168,973 -2168,2169 0,832 471,1556 1161,1920 -690,363 -1161,1087 -1161,1919 0,832 471,1556 1161,1920 -690,363 -1161,1087 -1161,1919 0,1196 972,2169 2168,2169l2846 0c138,0 250,-111 250,-249 0,-138 -112,-249 -250,-249l-1464 0c481,-398 787,-999 787,-1671 0,-671 -306,-1272 -787,-1670l860 0c194,87 1012,478 1817,1195 729,649 1241,1366 1533,2146l-1610 0c-138,0 -249,111 -249,249 0,138 111,249 249,249l1765 0c91,364 136,740 136,1128 0,138 112,249 250,249l8463 0c66,0 130,-26 176,-73 47,-47 73,-110 73,-176 0,-855 -174,-1672 -518,-2428zm-15997 -8547c0,-921 749,-1670 1670,-1670 921,0 1671,749 1671,1670 0,921 -749,1670 -1670,1670l-1 0c0,0 0,0 0,0 -921,0 -1670,-749 -1670,-1670zm0 3839c0,-921 749,-1670 1670,-1670 921,0 1671,749 1671,1670 0,921 -750,1671 -1671,1671 -921,0 -1670,-750 -1670,-1671zm3341 3839c0,921 -750,1671 -1671,1671 -921,0 -1670,-750 -1670,-1671 0,-921 749,-1670 1670,-1670 921,0 1671,749 1671,1670z"/>
   <path class="fil1" d="M11325 2904c258,-26 495,98 592,173l984 759 1538 -1445c151,-142 348,-212 545,-211 196,1 393,73 543,216 11,11 20,20 28,28 131,140 196,317 195,493 0,176 -67,353 -200,491 -9,10 -19,20 -29,29l-2028 1906c-73,68 -158,121 -249,157 -92,35 -191,54 -293,54 -87,0 -174,-14 -257,-42 -82,-28 -159,-69 -228,-122l-322 -248 -10 -9c-51,-43 -80,-101 -86,-161 -7,-60 10,-123 50,-175l8 -10c46,-53 109,-84 175,-90 66,-6 134,11 190,54l322 249c39,30 102,59 174,56 51,-2 107,-22 161,-72l2038 -1915c42,-44 63,-99 63,-154 1,-55 -20,-111 -61,-155l-9 -9c-49,-47 -113,-70 -178,-70 -64,-1 -128,22 -177,68l-1704 1601c-47,44 -108,68 -170,71 -61,3 -124,-16 -175,-55l-1164 -898c-33,-26 -112,-70 -197,-62 -51,5 -105,30 -155,93l-2 3c-62,81 -67,150 -50,205 18,56 59,98 85,119l563 435 11 8c50,43 79,101 86,161 6,61 -10,123 -50,176l-9 10c-45,53 -109,83 -175,90 -65,6 -134,-11 -189,-54 -150,-116 -448,-318 -569,-439 -80,-64 -200,-199 -254,-377 -56,-180 -45,-403 137,-639 1,-1 9,-11 11,-13 150,-188 324,-264 491,-280z"/>
  </g>
 </g>
</svg>
