<?xml version="1.0" encoding="UTF-8"?>
<!DOCTYPE svg PUBLIC "-//W3C//DTD SVG 1.1//EN" "http://www.w3.org/Graphics/SVG/1.1/DTD/svg11.dtd">
<!-- Creator: CorelDRAW X8 -->
<svg xmlns="http://www.w3.org/2000/svg" xml:space="preserve" width="65px" height="64px" version="1.1" style="shape-rendering:geometricPrecision; text-rendering:geometricPrecision; image-rendering:optimizeQuality; fill-rule:evenodd; clip-rule:evenodd"
viewBox="0 0 4300 4245"
 xmlns:xlink="http://www.w3.org/1999/xlink">
 <defs>
  <style type="text/css">
   <![CDATA[
    .fil1 {fill:#0528F2;fill-rule:nonzero}
    .fil0 {fill:#3A4480;fill-rule:nonzero}
   ]]>
  </style>
 </defs>
 <g id="Слой_x0020_1">
  <metadata id="CorelCorpID_0Corel-Layer"/>
  <g id="_649438368">
   <path class="fil0" d="M2307 68l747 739 3 4c16,21 26,42 32,62 6,27 4,53 -7,77 -11,25 -31,44 -58,56 -18,7 -40,12 -64,12l-317 0c-6,0 -10,1 -13,4 -3,3 -4,7 -4,12l0 563c0,51 -22,98 -59,131 -34,29 -79,48 -133,48l-557 0c-50,0 -95,-20 -127,-52 -33,-33 -53,-77 -53,-127l0 -563c0,-4 -2,-9 -5,-11 -3,-4 -8,-5 -13,-5l-339 0c-33,0 -60,-8 -81,-22 -17,-10 -29,-23 -38,-40 -9,-16 -14,-34 -14,-53 0,-25 8,-51 25,-76l0 0c7,-11 12,-18 18,-24 -14,14 -20,19 1,-1 3,-4 7,-7 10,-10 60,-60 250,-247 741,-733l0 0c44,-43 99,-61 153,-59 56,3 111,27 152,68zm566 787l-680 -673c-13,-12 -29,-20 -45,-20 -11,-1 -23,3 -32,12l0 0c-286,284 -433,428 -689,681l252 0c50,0 95,20 127,52 33,33 53,77 53,127l0 563c0,4 2,8 5,11 3,4 7,5 13,5l557 0c12,0 20,-2 25,-6 3,-3 4,-6 4,-10l0 -563c0,-49 20,-94 53,-126 32,-33 77,-53 127,-53l230 0zm-1609 -66c10,-9 19,-18 28,-27 44,-44 3,-4 -28,27zm-237 538l0 1580c0,25 -5,48 -13,66l0 0c-13,29 -35,49 -62,59l0 0c-19,7 -39,9 -60,5 -16,-2 -31,-8 -47,-17l0 0c-23,-12 -30,-19 -43,-33l-5 -4 -737 -741c-5,-3 -9,-7 -13,-11 -31,-31 -46,-71 -47,-113 -1,-38 12,-78 37,-112 6,-8 12,-15 19,-22l0 -1c2,-1 38,-37 726,-717l0 0c8,-8 6,-6 7,-7 18,-19 43,-44 76,-59l0 0c16,-7 32,-10 47,-10 27,0 50,9 69,25 15,12 26,28 33,45l0 0c9,22 13,46 13,67zm-162 1494l0 -1409c-668,660 -694,686 -694,686l-1 0c-1,2 -2,3 -3,4 -4,5 -5,10 -5,14 0,1 -1,1 -1,1l5 4 699 700zm58 57l-1 0 0 0 1 0zm-867 -895c0,0 0,1 0,0zm1821 453l557 0c54,0 99,19 133,49 37,33 59,79 59,130l0 596c0,11 2,18 6,23l0 0c2,2 6,4 11,4l295 0c36,0 66,9 89,24 13,9 25,21 33,34l0 0c10,17 15,35 15,54 0,20 -6,41 -19,61l0 0c-8,13 -25,29 -38,41l-8 7c-242,243 -484,487 -727,730 -18,18 -39,31 -61,41 -23,10 -48,15 -72,15 -24,0 -49,-6 -73,-16 -22,-9 -42,-23 -60,-41l-742 -744c-19,-15 -32,-32 -40,-50 -11,-24 -13,-49 -6,-73 7,-23 21,-43 41,-57 18,-13 41,-22 68,-25 21,-2 46,-2 69,-1l272 0c5,0 8,-1 10,-3 4,-3 6,-8 7,-15l0 0c2,-12 2,-32 1,-49 0,-15 0,-12 0,-21l0 -535c0,-50 20,-94 53,-127 32,-32 77,-52 127,-52zm557 163l-557 0c-6,0 -10,2 -13,5 -3,3 -5,7 -5,11l0 535c0,20 0,17 0,18 0,24 1,53 -3,78l0 0c-8,45 -29,83 -60,110 -32,28 -72,44 -117,44l-219 0 671 673c3,4 6,6 10,8 3,1 6,1 9,1 3,0 6,0 9,-1 4,-2 8,-5 12,-8l670 -673 -198 0c-52,0 -98,-21 -131,-57l0 -1c-30,-33 -49,-79 -49,-131l0 -596c0,-4 -1,-7 -4,-9 -5,-5 -13,-7 -25,-7z"/>
   <path class="fil1" d="M3373 1213c20,-7 41,-7 63,0 15,5 29,13 43,25 9,7 18,16 26,25 4,4 8,8 9,10 243,236 489,471 729,710 32,32 51,72 56,111 5,44 -6,87 -33,122 -10,13 -25,27 -37,38 -5,4 -9,8 -10,9 -237,235 -475,470 -712,705l0 0c-11,11 -11,12 -12,12l0 1c-17,18 -36,30 -54,36 -29,9 -57,6 -82,-7 -24,-13 -42,-34 -53,-62 -7,-18 -11,-40 -11,-63l0 -1548c0,-24 5,-45 12,-64 14,-31 36,-51 66,-60zm117 262l-33 -32 0 1346 649 -641c5,-5 8,-9 13,-13 8,-7 18,-17 19,-18l0 -3c-1,-5 -3,-11 -8,-15l-640 -624z"/>
  </g>
 </g>
</svg>
