<?xml version="1.0" encoding="UTF-8"?>
<!DOCTYPE svg PUBLIC "-//W3C//DTD SVG 1.1//EN" "http://www.w3.org/Graphics/SVG/1.1/DTD/svg11.dtd">
<!-- Creator: CorelDRAW X8 -->
<svg xmlns="http://www.w3.org/2000/svg" xml:space="preserve" width="65px" height="62px" version="1.1" style="shape-rendering:geometricPrecision; text-rendering:geometricPrecision; image-rendering:optimizeQuality; fill-rule:evenodd; clip-rule:evenodd"
viewBox="0 0 21043 20199"
 xmlns:xlink="http://www.w3.org/1999/xlink">
 <defs>
  <style type="text/css">
   <![CDATA[
    .fil0 {fill:#0528F2}
    .fil1 {fill:#3A4480}
   ]]>
  </style>
 </defs>
 <g id="Слой_x0020_1">
  <metadata id="CorelCorpID_0Corel-Layer"/>
  <g id="_648093008">
   <path id="XMLID_391_" class="fil0" d="M18321 17066c-108,0 -214,44 -290,121 -77,76 -121,182 -121,290 0,108 44,214 121,291 76,77 182,120 290,120 108,0 214,-43 291,-120 76,-77 120,-183 120,-291 0,-108 -44,-214 -120,-290 -77,-77 -183,-121 -291,-121z"/>
   <path id="XMLID_397_" class="fil0" d="M15341 8716l-2036 2036c-170,-84 -362,-132 -564,-132 -202,0 -394,48 -564,132l-911 -911c-161,-161 -421,-161 -581,0 -161,160 -161,421 0,581l911 911c-85,170 -132,362 -132,564 0,705 573,1277 1277,1277 704,0 1277,-572 1277,-1277 0,-202 -47,-394 -132,-564l1976 -1976 0 0 60 -59c161,-161 161,-421 0,-582 -160,-160 -421,-160 -581,0zm-2600 3637c-251,0 -455,-205 -455,-456 0,-251 204,-455 455,-455 251,0 455,204 455,455 0,251 -204,456 -455,456z"/>
   <path id="XMLID_400_" class="fil0" d="M12746 8295c227,0 411,-184 411,-411l0 -381c0,-227 -184,-411 -411,-411 -227,0 -411,184 -411,411l0 381c0,227 184,411 411,411z"/>
   <path id="XMLID_424_" class="fil0" d="M12736 15500c-227,0 -411,184 -411,411l0 381c0,227 184,411 411,411 227,0 411,-184 411,-411l0 -381c0,-227 -184,-411 -411,-411z"/>
   <path id="XMLID_389_" class="fil1" d="M21002 11072c-189,-1901 -1038,-3692 -2390,-5045 -1157,-1156 -2572,-1899 -4060,-2229l0 -1045c608,-151 1060,-701 1060,-1356 0,-770 -627,-1397 -1398,-1397l-2959 0c-770,0 -1397,627 -1397,1397 0,655 452,1205 1060,1356l0 1048c-1484,331 -2895,1073 -4048,2226 -252,252 -484,517 -697,792 -11,-1 -21,-2 -32,-2l-2928 0c-227,0 -411,184 -411,411 0,227 184,411 411,411l2400 0c-301,505 -544,1035 -729,1580l-4473 0c-227,0 -411,184 -411,411 0,227 184,411 411,411l4241 0c-119,520 -187,1049 -204,1580l-1818 0c-227,0 -411,184 -411,411 0,227 184,411 411,411l1831 0c35,532 120,1061 257,1579l-2663 0c-227,0 -411,184 -411,411 0,227 184,412 411,412l2925 0c403,1066 1033,2066 1890,2923 1355,1354 3148,2203 5050,2391 272,27 544,40 815,40 1604,0 3187,-464 4531,-1339 190,-124 244,-378 120,-568 -124,-191 -379,-244 -569,-121 -2941,1916 -6880,1501 -9365,-984 -2917,-2917 -2917,-7662 0,-10579 2916,-2916 7662,-2916 10578,0 2483,2483 2899,6418 990,9357 -123,191 -69,445 121,569 190,124 445,70 569,-121 1019,-1570 1478,-3467 1292,-5341zm-10322 -9675c0,-317 258,-575 575,-575l2959 0c318,0 576,258 576,575 0,318 -258,576 -576,576l-73 0 -2812 0 -74 0c-317,0 -575,-258 -575,-576zm1060 2262l0 -864 1990 0 0 863c-661,-79 -1330,-78 -1990,1z"/>
   <path id="XMLID_394_" class="fil1" d="M12741 5522c-3516,0 -6376,2860 -6376,6375 0,3516 2860,6376 6376,6376 3516,0 6376,-2860 6376,-6376 0,-3515 -2860,-6375 -6376,-6375zm0 11929c-3062,0 -5554,-2491 -5554,-5554 0,-3062 2492,-5553 5554,-5553 3062,0 5554,2491 5554,5553 0,3063 -2492,5554 -5554,5554z"/>
   <path id="XMLID_398_" class="fil1" d="M17135 11491l-380 0c-227,0 -411,184 -411,411 0,227 184,411 411,411l380 0c227,0 411,-184 411,-411 0,-227 -184,-411 -411,-411z"/>
   <path id="XMLID_399_" class="fil1" d="M8727 11481l-380 0c-227,0 -411,184 -411,411 0,227 184,411 411,411l380 0c227,0 411,-184 411,-411 0,-227 -184,-411 -411,-411z"/>
   <path id="XMLID_425_" class="fil1" d="M411 14022c-108,0 -214,44 -291,121 -76,76 -120,182 -120,290 0,109 44,214 120,291 77,76 183,120 291,120 108,0 214,-44 291,-120 76,-77 120,-183 120,-291 0,-108 -44,-214 -120,-290 -77,-77 -183,-121 -291,-121z"/>
  </g>
 </g>
</svg>
