<?xml version="1.0" encoding="UTF-8"?>
<!DOCTYPE svg PUBLIC "-//W3C//DTD SVG 1.1//EN" "http://www.w3.org/Graphics/SVG/1.1/DTD/svg11.dtd">
<!-- Creator: CorelDRAW X8 -->
<svg width="55px" height="35px" xmlns="http://www.w3.org/2000/svg" xml:space="preserve" version="1.1" style="shape-rendering:geometricPrecision; text-rendering:geometricPrecision; image-rendering:optimizeQuality; fill-rule:evenodd; clip-rule:evenodd"
viewBox="0 0 12718 8045"
 xmlns:xlink="http://www.w3.org/1999/xlink">
 <defs>
  <style type="text/css">
   <![CDATA[
    .fil1 {fill:#0528F2}
    .fil0 {fill:#3A4480}
   ]]>
  </style>
 </defs>
 <g id="Слой_x0020_1">
  <metadata id="CorelCorpID_0Corel-Layer"/>
  <g id="_703978272">
   <path class="fil0" d="M11828 3411l-330 -1318c90,-19 158,-99 158,-195l0 -212c0,-461 -375,-836 -837,-836l-1500 0 0 -438c0,-227 -184,-412 -411,-412l-7647 0c-227,0 -411,185 -411,412l0 3610c0,110 89,200 199,200 110,0 199,-90 199,-200l0 -3610c0,-8 6,-14 13,-14l7647 0c7,0 13,6 13,14l0 3611c0,110 89,199 199,199 110,0 199,-89 199,-199l0 -226 2349 0c1,0 1,0 1,0 0,0 0,0 0,0 290,0 535,190 619,451l-619 0c-110,0 -199,89 -199,199l0 425c0,344 280,624 624,624l226 0 0 876 -521 0c-171,-494 -641,-849 -1192,-849 -551,0 -1021,355 -1192,849l-96 0 0 -1500c0,-110 -89,-199 -199,-199 -110,0 -199,89 -199,199l0 1500 -4132 0c-171,-494 -640,-849 -1191,-849 -552,0 -1021,355 -1192,849l-1145 0c-7,0 -13,-6 -13,-13l0 -438 863 0c110,0 199,-89 199,-199 0,-110 -89,-199 -199,-199l-1912 0c-110,0 -199,89 -199,199 0,110 89,199 199,199l651 0 0 438c0,227 184,411 411,411l1076 0c0,5 -1,9 -1,14 0,695 566,1261 1262,1261 695,0 1261,-566 1261,-1261 0,-5 0,-9 -1,-14l4488 0c0,5 0,9 0,14 0,695 566,1261 1261,1261 695,0 1261,-566 1261,-1261 0,-5 0,-9 0,-14l651 0c110,0 199,-89 199,-199l0 -2124c0,-524 -387,-960 -890,-1036zm-2509 -2163l1500 0c242,0 439,196 439,438l0 13 -1939 0 0 -451zm0 2151l0 -1301 1770 0 325 1301 -2095 0zm-5721 4248c-476,0 -863,-387 -863,-863 0,-476 387,-863 863,-863 475,0 863,387 863,863 0,476 -388,863 -863,863zm7009 0c-476,0 -863,-387 -863,-863 0,-476 387,-863 863,-863 476,0 863,387 863,863 0,476 -387,863 -863,863zm1713 -2549l-226 0c-125,0 -226,-101 -226,-226l0 -226 452 0 0 452 0 0z"/>
   <path class="fil1" d="M3598 6372c-227,0 -412,185 -412,412 0,227 185,411 412,411 227,0 411,-184 411,-411 0,-227 -184,-412 -411,-412z"/>
   <path class="fil1" d="M10607 6372c-227,0 -411,185 -411,412 0,227 184,411 411,411 227,0 412,-184 412,-411 0,-227 -185,-412 -412,-412z"/>
   <path class="fil0" d="M8271 5523l-2974 0c-110,0 -199,89 -199,199 0,110 89,199 199,199l2974 0c110,0 199,-89 199,-199 0,-110 -89,-199 -199,-199z"/>
   <path class="fil1" d="M3173 4673l-2549 0c-110,0 -199,89 -199,199 0,110 89,199 199,199l2549 0c110,0 199,-89 199,-199 0,-110 -89,-199 -199,-199z"/>
   <path class="fil1" d="M6925 1970c-78,-78 -204,-78 -282,0l-1771 1771 -921 -921c-78,-78 -204,-78 -282,0 -78,77 -78,203 0,281l1062 1062c39,39 90,59 141,59 51,0 102,-20 141,-59l1912 -1911c77,-78 77,-204 0,-282z"/>
  </g>
 </g>
</svg>
