<?xml version="1.0" encoding="UTF-8"?>
<!DOCTYPE svg PUBLIC "-//W3C//DTD SVG 1.1//EN" "http://www.w3.org/Graphics/SVG/1.1/DTD/svg11.dtd">
<!-- Creator: CorelDRAW X8 -->
<svg width="55px" height="65px" xmlns="http://www.w3.org/2000/svg" xml:space="preserve" version="1.1" style="shape-rendering:geometricPrecision; text-rendering:geometricPrecision; image-rendering:optimizeQuality; fill-rule:evenodd; clip-rule:evenodd"
viewBox="0 0 11395 13547"
 xmlns:xlink="http://www.w3.org/1999/xlink">
 <defs>
  <style type="text/css">
   <![CDATA[
    .fil1 {fill:#0528F2}
    .fil0 {fill:#3A4480}
   ]]>
  </style>
 </defs>
 <g id="Слой_x0020_1">
  <metadata id="CorelCorpID_0Corel-Layer"/>
  <path class="fil0" d="M10518 2694l-1830 -1831c-557,-556 -1297,-863 -2084,-863l-405 0 -3825 0c-637,0 -1155,518 -1155,1156l0 63 -63 0c-638,0 -1156,518 -1156,1155l0 10017c0,637 518,1156 1156,1156l7864 0c637,0 1156,-519 1156,-1156l0 -63 63 0c637,0 1156,-518 1156,-1156l0 -5989c0,-949 -111,-1724 -877,-2489zm483 8478c0,419 -341,759 -759,759l-2136 0c-109,0 -198,89 -198,199 0,109 89,198 198,198l1676 0 0 63c0,418 -340,759 -759,759l-7864 0c-419,0 -759,-341 -759,-759l0 -10017c0,-418 340,-758 759,-758l63 0 0 9556c0,638 518,1156 1156,1156l4935 0c109,0 198,-89 198,-198 0,-110 -89,-199 -198,-199l-4935 0c-419,0 -759,-340 -759,-759l0 -10016c0,-419 340,-759 759,-759l3836 0c742,0 1346,603 1346,1345l0 940c0,637 518,1156 1156,1156l939 0c742,0 1346,603 1346,1345l0 5989zm-2578 -10028l1831 1830c271,272 474,594 599,945 -312,-296 -734,-478 -1198,-478l-939 0c-419,0 -759,-341 -759,-759l0 -940c0,-463 -182,-885 -478,-1198 351,126 673,329 944,600z"/>
  <g id="_701973472">
   <path class="fil1" d="M5220 8991c128,127 297,197 477,197 180,0 350,-70 477,-197l1396 -1396c119,-119 155,-298 90,-454 -65,-157 -216,-258 -385,-258l-426 0 0 -2600c0,-230 -187,-417 -417,-417l-1469 0c-230,0 -417,187 -417,417l0 1027c0,110 89,199 198,199 110,0 199,-89 199,-199l0 -1027c0,-11 9,-20 20,-20l1469 0c11,0 20,9 20,20l0 2799c0,109 89,198 198,198l625 0c5,0 13,0 18,13 6,12 0,18 -4,22l-1395 1395c-53,53 -123,82 -197,82 -74,0 -144,-29 -196,-82l-1396 -1395c-3,-4 -9,-10 -4,-22 5,-13 14,-13 19,-13l624 0c110,0 199,-89 199,-198l0 -978c0,-110 -89,-199 -199,-199 -109,0 -198,89 -198,199l0 779 -426 0c-170,0 -321,101 -386,258 -64,156 -29,335 91,454l1395 1396z"/>
   <path class="fil1" d="M7401 9420l-3407 0c-345,0 -625,280 -625,625l0 11c0,345 280,625 625,625l3407 0c344,0 624,-280 624,-625l0 -11c0,-345 -280,-625 -624,-625l0 0zm227 636c0,126 -102,228 -227,228l-3407 0c-126,0 -228,-102 -228,-228l0 -11c0,-126 102,-228 228,-228l3407 0c125,0 227,102 227,228l0 11z"/>
  </g>
 </g>
</svg>
