<?xml version="1.0" encoding="UTF-8"?>
<!DOCTYPE svg PUBLIC "-//W3C//DTD SVG 1.1//EN" "http://www.w3.org/Graphics/SVG/1.1/DTD/svg11.dtd">
<!-- Creator: CorelDRAW X8 -->
<svg width="55px" height="61px" xmlns="http://www.w3.org/2000/svg" xml:space="preserve" version="1.1" style="shape-rendering:geometricPrecision; text-rendering:geometricPrecision; image-rendering:optimizeQuality; fill-rule:evenodd; clip-rule:evenodd"
viewBox="0 0 8600 9574"
 xmlns:xlink="http://www.w3.org/1999/xlink">
 <defs>
  <style type="text/css">
   <![CDATA[
    .fil0 {fill:#0528F2}
    .fil1 {fill:#3A4480}
   ]]>
  </style>
 </defs>
 <g id="Слой_x0020_1">
  <metadata id="CorelCorpID_0Corel-Layer"/>
  <path class="fil0" d="M811 5355c-89,0 -162,72 -162,162l0 649c0,90 73,162 162,162 90,0 163,-72 163,-162l0 -649c0,-90 -73,-162 -163,-162z"/>
  <path class="fil0" d="M1460 5679c-89,0 -162,73 -162,163l0 649c0,89 73,162 162,162 90,0 163,-73 163,-162l0 -649c0,-90 -73,-163 -163,-163z"/>
  <path class="fil0" d="M7379 6550c-76,-48 -176,-26 -224,50 -46,73 -28,169 42,219 446,300 564,905 264,1351 -300,446 -905,564 -1351,264 -446,-300 -565,-905 -264,-1351 181,-269 483,-430 807,-430 89,0 162,-73 162,-162 0,-90 -73,-163 -162,-163 -717,0 -1298,582 -1298,1299 0,717 581,1298 1298,1298 717,-1 1298,-582 1298,-1299 0,-431 -214,-835 -572,-1076z"/>
  <path class="fil1" d="M8524 7087c-158,-544 -545,-993 -1060,-1229l0 -3586c0,-58 -30,-111 -80,-140l-3569 -2109c-51,-31 -115,-31 -166,0l-3569 2109c-4,2 -6,5 -9,7 -4,2 -7,5 -10,8 -14,11 -26,24 -36,39 0,1 -2,2 -2,3l0 1c-10,17 -16,35 -19,53 0,5 -1,10 -2,15 0,4 -2,9 -2,14l0 4219c0,57 30,110 80,139l3569 2110c5,2 9,4 14,5 4,2 9,4 13,6 36,15 76,15 112,0 5,-2 9,-4 14,-6 4,-2 8,-3 13,-5l969 -573c298,1033 1377,1628 2409,1330 1033,-298 1629,-1377 1331,-2410zm-4792 -6736l844 498 -1251 740c-77,45 -103,145 -57,222 45,77 145,103 222,57l1405 -829 844 498 -3251 1921 -844 -499 1360 -803c77,-46 102,-145 57,-223 -46,-77 -145,-102 -223,-57l-1513 894 -844 -498 3251 -1921zm-1406 3388l0 1083 -839 -495 0 -1084 839 496zm2444 3386c-43,163 -65,332 -64,501 0,68 3,136 10,204l-822 486 0 -527c0,-90 -72,-163 -162,-163 -90,0 -162,73 -162,163l0 527 -3245 -1918 0 -3842 838 496 0 1367c0,58 30,111 80,140l1162 687c25,15 54,23 83,23 90,0 162,-73 162,-162l0 -1177 920 544 0 2666c0,89 72,162 162,162 90,0 162,-73 162,-162l0 -2666 2941 -1738c77,-46 103,-145 57,-222 -45,-78 -145,-103 -222,-57l-2938 1736 -925 -547 3251 -1921 1082 639 0 3380c-1036,-273 -2097,345 -2370,1381zm1883 2124c-896,0 -1623,-726 -1623,-1623 0,-896 727,-1622 1623,-1622 896,0 1622,726 1622,1622 -1,896 -726,1622 -1622,1623z"/>
  <path class="fil0" d="M7250 7187c-63,-61 -162,-61 -225,0l-616 616 -128 -129c-65,-62 -167,-61 -230,4 -60,63 -60,163 0,225l244 244c63,63 166,63 229,0l730 -730c63,-65 61,-168 -4,-230z"/>
 </g>
</svg>
