<?xml version="1.0" encoding="UTF-8"?>
<!DOCTYPE svg PUBLIC "-//W3C//DTD SVG 1.1//EN" "http://www.w3.org/Graphics/SVG/1.1/DTD/svg11.dtd">
<!-- Creator: CorelDRAW X8 -->
<svg width="55px" height="50px" xmlns="http://www.w3.org/2000/svg" xml:space="preserve" version="1.1" style="shape-rendering:geometricPrecision; text-rendering:geometricPrecision; image-rendering:optimizeQuality; fill-rule:evenodd; clip-rule:evenodd"
viewBox="0 0 13306 12215"
 xmlns:xlink="http://www.w3.org/1999/xlink">
 <defs>
  <style type="text/css">
   <![CDATA[
    .fil1 {fill:#0528F2}
    .fil0 {fill:#3A4480}
   ]]>
  </style>
 </defs>
 <g id="Слой_x0020_1">
  <metadata id="CorelCorpID_0Corel-Layer"/>
  <path id="Shape" class="fil0" d="M13122 1680c-296,-464 -910,-604 -1377,-313l-2023 1275 -114 -182c-65,-105 -202,-136 -306,-71 -104,65 -136,202 -71,306l115 184 -919 580c-482,-415 -1007,-777 -1568,-1077 -173,-93 -386,-61 -524,78 -6707,6713 -6289,6275 -6316,6340 -26,64 -18,-198 -18,2971 0,246 199,444 445,444l10659 0c246,0 444,-198 444,-444l0 -1554c6,-1878 -589,-3708 -1698,-5224l588 -373 140 222c31,50 81,85 139,98 57,13 118,3 167,-29 103,-65 133,-201 69,-304l-140 -222 2026 -1275c232,-147 394,-384 447,-654 54,-271 -6,-551 -165,-776l0 0zm-6472 1093c491,264 955,577 1384,932l-6256 3949 4872 -4881zm2836 2474c1013,1380 1578,3037 1619,4748l-7883 0c690,-444 1621,-1026 2838,-1792 2458,-1539 3191,-2745 3426,-2956zm-9040 4028l1776 1068 0 1428 -1776 0 0 -2496zm10659 2496l-8439 0 0 -1332 8439 0 0 1332zm-2143 -6611c-300,393 -1206,1448 -3138,2665 -1568,988 -2665,1679 -3377,2134l-1795 -1075 8932 -5629 633 990c-766,478 -1008,593 -1255,915l0 0zm3642 -2427l-2021 1266 -624 -991 2021 -1272c125,-80 276,-106 419,-73 144,32 269,121 347,246l32 49c82,125 110,278 77,424 -33,146 -123,273 -251,351l0 0z"/>
  <path id="Shape_0" class="fil1" d="M4083 7161l-1756 1090c-68,42 -108,117 -105,197 3,79 48,151 118,188 70,38 155,35 222,-7l1757 -1091c67,-42 107,-116 104,-196 -2,-79 -47,-151 -117,-189 -71,-37 -155,-34 -223,8z"/>
  <path id="Shape_1" class="fil1" d="M3111 2666c0,123 99,222 222,222l1110 0c107,2 201,-72 222,-177l222 -1111c16,-79 -12,-161 -72,-214 -61,-54 -146,-71 -223,-45 -76,26 -133,91 -149,170l-118 591c-815,-1124 -2042,-1879 -3413,-2101 -59,-6 -118,12 -164,49 -46,38 -75,92 -80,151 -7,59 11,118 49,164 37,46 92,75 151,80 1279,217 2417,937 3162,1999l-697 0c-123,0 -222,99 -222,222l0 0z"/>
  <circle id="Oval" class="fil1" cx="1778" cy="8884" r="222"/>
 </g>
</svg>
